<svg xmlns="http://www.w3.org/2000/svg" viewBox="0 0 7528 716" width="7528" height="716"><g transform="translate(-380,-504)"><g transform="translate(0.000000,1984.000000) scale(0.100000,-0.100000)" fill="#0b0f19"><path d="M15010 14790 c-80 -5 -156 -11 -170 -14 -14 -2 -74 -10 -135 -16
-112 -11 -200 -27 -335 -60 -41 -10 -93 -21 -115 -24 -49 -8 -126 -32 -183
-57 -23 -11 -53 -19 -65 -19 -12 0 -33 -7 -46 -17 -13 -9 -40 -20 -60 -24 -62
-13 -133 -39 -220 -81 -46 -21 -111 -50 -145 -62 -34 -13 -83 -37 -111 -54
-27 -17 -79 -46 -115 -65 -92 -48 -106 -56 -185 -112 -38 -28 -105 -73 -149
-100 -43 -28 -106 -75 -140 -106 -33 -30 -101 -89 -151 -131 -149 -126 -338
-332 -428 -466 -20 -32 -47 -66 -60 -77 -25 -22 -117 -163 -117 -179 0 -5 -11
-21 -24 -35 -25 -28 -41 -57 -135 -251 -34 -69 -77 -154 -96 -189 -19 -35 -35
-72 -35 -82 0 -10 -16 -51 -35 -92 -19 -41 -35 -81 -35 -91 0 -9 -7 -30 -15
-45 -8 -16 -19 -53 -24 -82 -5 -30 -23 -106 -39 -169 -16 -63 -35 -153 -42
-200 -7 -47 -16 -98 -21 -115 -6 -16 -15 -151 -21 -300 -11 -272 -2 -601 21
-755 22 -154 32 -209 45 -275 24 -115 72 -298 84 -321 6 -12 16 -39 21 -60 17
-69 42 -137 76 -209 84 -178 170 -347 213 -421 115 -198 136 -230 212 -317 19
-22 44 -55 55 -73 57 -93 460 -502 558 -566 23 -15 62 -43 87 -62 56 -44 136
-101 174 -124 16 -9 41 -27 56 -39 15 -13 34 -23 42 -23 8 0 30 -13 48 -30 18
-16 37 -30 41 -30 4 0 100 -45 213 -100 112 -55 211 -100 218 -100 7 0 40 -14
73 -30 33 -17 69 -30 82 -30 12 0 24 -4 28 -10 3 -5 31 -17 63 -26 31 -9 66
-20 77 -25 42 -16 125 -40 171 -49 47 -9 64 -12 204 -45 36 -8 119 -22 185
-30 66 -8 140 -19 165 -25 25 -5 108 -15 185 -21 168 -14 815 -7 857 10 15 6
78 15 140 21 62 6 145 18 183 26 39 8 113 23 165 35 52 11 115 24 140 28 25 5
86 23 135 41 50 17 106 35 126 39 20 4 47 15 60 24 13 10 33 17 46 17 12 0 66
22 120 50 54 27 125 59 159 70 33 11 94 41 135 66 40 25 111 64 157 86 46 22
95 50 110 62 15 12 41 30 57 41 17 10 81 57 143 104 62 47 132 99 155 115 64
45 446 426 467 466 10 19 41 62 69 95 28 32 51 63 51 67 0 4 20 30 45 58 25
28 45 56 45 62 0 6 24 48 54 93 30 45 68 111 84 146 17 35 62 129 102 209 39
80 79 168 89 195 10 28 26 73 36 100 10 28 28 73 41 101 12 29 26 69 29 90 4
22 13 59 20 84 26 92 56 227 64 295 5 39 16 124 25 190 35 260 36 669 2 925
-25 193 -47 323 -57 350 -5 14 -16 54 -24 90 -8 36 -21 96 -30 135 -9 38 -27
89 -40 113 -14 25 -25 55 -25 67 0 12 -11 43 -25 69 -14 26 -25 55 -25 66 0
10 -37 94 -83 187 -46 92 -92 186 -103 208 -27 56 -183 294 -257 393 -197 263
-583 635 -758 731 -19 11 -41 27 -48 35 -16 20 -179 118 -241 146 -14 6 -37
22 -51 36 -27 25 -223 124 -247 124 -7 0 -39 12 -70 26 -31 14 -79 36 -107 49
-27 12 -72 29 -100 38 -27 8 -102 33 -165 55 -145 49 -221 72 -246 72 -11 0
-44 7 -74 16 -96 27 -190 44 -400 69 -231 28 -624 39 -880 25z m560 -1360 c30
-4 96 -13 145 -19 110 -14 298 -58 345 -81 19 -9 48 -20 65 -24 32 -8 144 -62
270 -131 44 -24 98 -52 120 -63 22 -10 47 -27 55 -36 8 -10 37 -33 65 -51 126
-81 465 -455 521 -575 10 -19 30 -53 45 -76 15 -22 31 -54 35 -70 4 -16 27
-68 51 -116 23 -49 43 -92 43 -98 0 -5 14 -49 31 -97 17 -48 34 -113 39 -143
4 -31 14 -69 22 -85 8 -17 18 -70 22 -118 3 -49 11 -98 17 -109 16 -29 15
-492 -1 -588 -6 -41 -15 -102 -20 -135 -4 -33 -10 -69 -13 -80 -3 -11 -11 -47
-17 -80 -22 -106 -79 -282 -120 -367 -22 -45 -40 -90 -40 -99 0 -10 -5 -21
-11 -25 -6 -3 -19 -25 -30 -48 -37 -78 -107 -191 -149 -240 -14 -17 -43 -56
-63 -87 -70 -107 -302 -314 -487 -436 -36 -24 -69 -46 -75 -51 -20 -16 -266
-132 -280 -132 -9 0 -41 -11 -73 -24 -31 -13 -109 -36 -172 -51 -63 -15 -140
-33 -170 -41 -80 -20 -395 -38 -519 -30 -225 14 -310 25 -431 55 -171 43 -219
57 -262 75 -21 9 -44 16 -53 16 -25 0 -280 127 -300 151 -11 11 -36 29 -55 39
-19 10 -43 27 -53 38 -10 11 -33 26 -50 33 -43 17 -239 200 -342 319 -78 91
-167 211 -186 255 -5 11 -25 45 -44 75 -44 69 -67 117 -99 205 -15 39 -34 84
-43 100 -9 17 -19 46 -24 65 -4 19 -14 55 -22 80 -36 108 -46 150 -56 225 -6
44 -16 96 -22 115 -7 22 -12 141 -14 315 -3 235 0 301 16 410 10 72 23 146 28
165 6 19 17 62 25 95 26 105 108 329 127 350 5 5 9 18 9 28 0 18 23 66 46 97
6 8 30 51 54 95 23 44 53 91 66 106 13 14 24 30 24 37 0 11 97 128 216 260
144 159 550 424 736 478 29 9 58 20 63 24 12 10 75 27 146 40 26 5 64 13 85
19 22 7 88 18 148 26 60 8 112 17 114 20 8 8 442 4 502 -5z"/><path d="M8639 14712 c-545 -2 -608 -4 -620 -18 -7 -9 -31 -82 -52 -163 -20
-80 -44 -171 -53 -201 -9 -30 -22 -80 -29 -110 -8 -30 -28 -109 -45 -175 -18
-66 -35 -138 -40 -160 -4 -22 -20 -85 -35 -140 -15 -55 -31 -118 -35 -140 -5
-22 -15 -67 -25 -100 -9 -33 -27 -103 -41 -155 -14 -52 -32 -120 -41 -150 -9
-30 -19 -68 -24 -85 -29 -114 -59 -225 -67 -250 -14 -42 -43 -161 -52 -217 -5
-26 -13 -56 -19 -67 -6 -11 -15 -46 -21 -78 -11 -68 -86 -359 -99 -388 -5 -11
-12 -40 -16 -64 -3 -24 -14 -68 -25 -99 -11 -31 -20 -69 -20 -84 0 -15 -4 -30
-10 -33 -5 -3 -10 -19 -10 -35 0 -16 -4 -32 -10 -35 -5 -3 -10 -18 -10 -33 0
-15 -9 -53 -20 -84 -11 -31 -22 -75 -26 -99 -3 -24 -12 -57 -19 -74 -14 -31
-78 -282 -95 -369 -5 -26 -16 -69 -24 -95 -7 -25 -24 -91 -36 -146 -12 -55
-28 -118 -35 -140 -41 -124 -41 -166 -2 -285 9 -25 32 -108 52 -185 20 -77 43
-162 51 -190 8 -27 18 -70 23 -95 15 -71 27 -114 38 -135 6 -11 13 -44 16 -74
4 -29 13 -64 22 -77 8 -13 15 -35 15 -48 0 -14 9 -56 20 -93 12 -38 30 -99 41
-138 12 -38 25 -83 31 -100 5 -16 14 -50 19 -75 5 -25 18 -71 29 -103 11 -31
20 -72 20 -90 0 -18 5 -38 10 -43 6 -6 19 -48 30 -95 20 -81 41 -160 61 -225
5 -17 9 -38 9 -47 0 -20 29 -23 34 -4 2 6 15 50 29 97 14 47 31 108 38 135 7
28 20 68 31 89 10 22 18 48 18 58 0 10 4 26 9 36 5 9 21 62 36 117 15 55 31
107 35 116 5 9 12 34 16 55 3 22 11 48 17 58 5 11 16 49 23 85 8 36 18 75 23
86 5 11 21 63 35 115 48 178 77 275 92 308 8 18 14 44 14 57 0 13 6 39 14 57
21 51 46 126 66 198 21 73 66 230 80 275 5 17 17 62 26 100 9 39 25 89 35 113
10 23 19 50 19 59 0 15 27 112 51 188 14 41 47 156 69 239 10 37 27 91 38 120
11 28 25 71 32 96 7 25 20 72 30 105 9 33 27 94 39 135 12 41 26 89 32 105 6
17 17 58 24 92 8 34 18 70 23 80 4 10 21 65 37 123 15 58 45 157 66 221 22 64
39 128 39 141 0 13 9 41 20 63 11 22 20 47 20 56 0 10 9 41 19 71 11 29 31 98
46 153 15 55 33 116 41 135 8 19 20 62 28 95 8 33 24 92 36 130 12 39 25 86
30 105 5 19 18 69 30 110 12 41 28 99 36 128 8 29 20 65 28 80 7 15 17 47 21
72 4 25 15 63 25 85 10 22 21 58 25 80 4 22 13 54 20 70 7 17 23 68 35 115 12
47 30 108 41 135 10 28 19 57 19 64 0 8 5 28 10 45 30 88 110 382 110 402 0
13 -8 27 -17 31 -10 4 -291 7 -624 5z"/><path d="M3833 14693 c-3 -9 -1 -32 5 -52 13 -44 59 -207 79 -281 21 -77 53
-179 69 -216 7 -17 16 -53 20 -79 3 -26 13 -60 20 -74 8 -14 14 -36 14 -49 0
-12 9 -39 20 -59 11 -21 20 -47 20 -58 0 -11 9 -44 20 -73 11 -29 20 -61 20
-72 0 -11 9 -37 20 -57 11 -21 20 -49 20 -63 0 -14 4 -30 10 -36 5 -5 14 -34
20 -64 6 -30 30 -118 54 -195 24 -77 49 -162 56 -190 16 -63 36 -131 49 -170
10 -30 30 -95 71 -235 12 -41 28 -88 35 -105 7 -16 20 -59 29 -95 19 -82 38
-146 69 -235 13 -38 29 -95 36 -125 18 -81 61 -221 77 -253 8 -16 14 -39 14
-51 0 -13 9 -49 20 -82 11 -32 20 -64 20 -71 0 -6 5 -24 12 -40 11 -28 36
-108 58 -193 7 -25 20 -65 30 -90 27 -66 60 -182 60 -207 0 -12 6 -37 14 -55
14 -33 68 -209 87 -283 6 -22 15 -58 21 -80 5 -22 16 -54 23 -71 8 -18 17 -49
21 -69 4 -21 15 -61 25 -89 11 -28 19 -62 19 -76 0 -14 7 -34 15 -44 8 -11 15
-31 15 -46 0 -14 6 -35 14 -46 8 -11 17 -38 21 -60 8 -45 42 -155 61 -199 8
-16 27 -82 43 -145 36 -138 47 -177 73 -255 11 -33 29 -94 40 -135 37 -145 43
-165 56 -187 6 -12 12 -31 12 -42 0 -11 9 -43 20 -71 11 -28 20 -61 20 -73 0
-12 9 -39 20 -60 11 -20 20 -46 20 -57 0 -12 6 -33 14 -48 7 -15 16 -45 20
-67 7 -41 40 -150 58 -195 11 -28 32 -103 54 -194 8 -32 25 -91 38 -130 13
-39 34 -109 46 -156 12 -47 28 -100 36 -118 8 -18 14 -43 14 -55 0 -12 7 -32
15 -44 8 -12 17 -36 19 -55 3 -18 7 -40 9 -48 3 -8 8 -27 11 -42 4 -15 15 -32
26 -38 13 -7 244 -10 702 -10 638 0 684 1 696 17 7 10 10 24 6 33 -3 8 -8 32
-11 52 -3 21 -12 43 -19 49 -8 6 -14 22 -14 35 0 13 -6 41 -14 61 -8 21 -26
79 -40 128 -15 50 -31 104 -37 120 -12 36 -32 109 -65 235 -13 52 -29 106 -35
120 -12 27 -32 93 -54 180 -32 124 -48 176 -61 195 -8 11 -14 29 -14 41 0 12
-9 41 -20 65 -11 24 -20 58 -20 74 0 17 -9 48 -20 70 -11 22 -19 51 -20 65 0
15 -4 30 -10 36 -9 9 -60 174 -60 196 0 7 -14 58 -31 113 -30 99 -48 161 -89
305 -12 41 -28 87 -36 102 -8 14 -14 37 -14 50 0 28 -36 148 -61 204 -11 23
-19 51 -19 64 0 12 -6 34 -14 48 -8 15 -20 54 -26 87 -7 32 -16 66 -20 75 -4
8 -18 49 -30 90 -13 41 -27 86 -31 100 -5 14 -18 63 -29 110 -22 90 -54 194
-76 248 -8 18 -14 40 -14 50 0 23 -38 147 -61 200 -10 23 -19 53 -19 65 0 12
-6 32 -14 43 -8 11 -17 38 -21 60 -3 21 -15 64 -25 94 -10 30 -23 73 -29 95
-6 22 -22 81 -37 130 -14 50 -39 133 -54 185 -16 52 -38 133 -50 180 -12 47
-28 100 -36 118 -8 18 -14 40 -14 50 0 10 -8 33 -19 52 -10 19 -21 59 -25 89
-4 30 -14 63 -22 75 -8 11 -14 31 -14 43 0 13 -9 40 -20 60 -11 21 -20 47 -20
58 0 11 -6 29 -14 40 -7 11 -16 45 -20 75 -4 30 -13 68 -20 85 -17 39 -57 173
-85 280 -5 22 -20 69 -31 105 -12 36 -25 83 -30 105 -5 22 -23 85 -40 140 -17
55 -35 115 -40 134 -5 18 -13 38 -19 44 -6 6 -11 21 -11 32 0 12 -11 55 -25
95 -14 40 -25 80 -25 88 0 8 -6 28 -14 45 -8 18 -22 59 -31 92 -9 33 -21 70
-26 83 -5 13 -9 34 -9 48 0 13 -4 32 -9 42 -11 20 -64 196 -81 267 -20 81 -21
84 -36 100 -13 13 -104 15 -705 15 -632 0 -690 -1 -696 -17z"/><path d="M21443 14679 c-10 -10 -13 -712 -13 -3443 0 -1887 4 -3437 8 -3444
11 -17 1558 -18 1579 -1 10 9 13 184 15 963 l3 951 722 3 722 2 43 -54 c70
-88 131 -174 198 -281 35 -55 84 -128 109 -162 109 -147 179 -247 274 -393 56
-86 125 -185 153 -220 28 -36 91 -127 140 -203 49 -76 107 -163 129 -192 60
-81 178 -250 239 -340 l53 -80 849 0 c785 0 849 1 852 17 3 15 -92 163 -162
252 -39 50 -41 53 -153 222 -50 76 -126 184 -168 239 -42 55 -102 141 -134
190 -32 50 -87 129 -122 177 -35 48 -98 138 -139 199 -41 61 -121 177 -177
258 -56 80 -112 160 -123 176 -12 17 -65 91 -118 165 -122 168 -192 278 -192
301 0 20 88 79 228 151 183 95 338 213 521 397 90 92 170 180 177 196 7 17 35
55 61 85 30 33 69 97 100 161 28 58 58 109 67 112 9 4 16 18 16 34 0 16 6 37
14 48 14 21 72 181 99 275 49 169 77 324 89 490 10 150 3 570 -11 675 -14 98
-39 222 -49 242 -6 10 -16 45 -23 78 -7 33 -19 71 -26 85 -7 14 -13 33 -13 43
0 10 -9 35 -19 55 -10 20 -24 57 -31 82 -17 62 -98 221 -159 310 -29 41 -71
105 -95 141 -59 89 -352 381 -443 442 -40 27 -75 53 -78 58 -4 5 -21 15 -39
23 -18 7 -48 28 -68 45 -20 17 -43 31 -51 31 -9 0 -19 5 -23 11 -3 6 -25 19
-48 30 -22 10 -48 23 -56 29 -34 22 -266 130 -280 130 -8 0 -53 14 -100 31
-96 35 -228 73 -310 90 -30 6 -63 15 -73 21 -10 5 -48 13 -85 18 -37 5 -89 14
-117 20 -47 10 -181 27 -270 35 -22 2 -67 9 -100 15 -93 18 -3375 26 -3392 9z
m3277 -1323 c86 -14 120 -21 230 -42 19 -4 44 -13 56 -20 11 -8 52 -25 90 -38
87 -29 160 -64 175 -82 6 -8 19 -14 29 -14 10 0 24 -7 31 -17 8 -9 38 -31 67
-50 29 -19 74 -62 101 -96 27 -34 61 -72 75 -84 14 -13 26 -29 26 -36 0 -8 9
-22 20 -32 11 -10 20 -22 20 -26 0 -4 14 -29 32 -55 18 -26 38 -68 44 -93 7
-25 20 -71 29 -101 44 -145 65 -394 46 -534 -17 -126 -41 -246 -58 -278 -7
-15 -13 -36 -13 -47 0 -26 -48 -118 -82 -159 -15 -18 -28 -40 -28 -48 0 -27
-191 -214 -275 -269 -106 -70 -191 -115 -216 -115 -11 0 -49 -16 -85 -35 -45
-24 -84 -36 -127 -40 -34 -4 -80 -13 -102 -20 -96 -34 -352 -45 -1057 -45
-620 0 -683 1 -700 17 -17 15 -18 65 -18 1188 0 923 3 1174 13 1184 20 20
1548 9 1677 -13z"/><path d="M28947 14672 c-15 -17 -17 -76 -17 -639 0 -588 1 -621 18 -636 17
-16 107 -17 1090 -17 1049 0 1072 0 1082 -19 7 -14 10 -898 10 -2785 0 -1520
3 -2771 6 -2780 6 -14 85 -16 793 -16 599 0 790 3 799 12 9 9 12 641 12 2781
0 1889 3 2774 10 2788 10 19 33 19 1089 19 1032 0 1079 1 1094 18 15 17 17 76
17 636 0 406 -4 624 -10 637 -11 19 -55 19 -2994 19 -2877 0 -2983 -1 -2999
-18z"/><path d="M36936 14668 c-14 -20 -16 -362 -16 -3430 0 -2189 3 -3416 10 -3432
l10 -26 2658 0 c2054 0 2661 3 2670 12 15 15 17 1234 2 1258 -8 13 -229 15
-1872 18 -1736 2 -1864 3 -1875 19 -10 13 -13 185 -13 779 l0 763 22 16 c21
14 183 15 1597 15 1109 0 1578 3 1585 10 15 15 21 1176 7 1214 l-11 26 -1584
0 c-1427 0 -1586 2 -1600 16 -14 14 -16 93 -16 725 0 696 0 709 20 729 20 20
33 20 1803 20 1373 0 1786 3 1795 12 9 9 12 163 12 633 0 470 -3 624 -12 633
-9 9 -599 12 -2594 12 l-2583 0 -15 -22z"/><path d="M43990 14671 c0 -20 97 -173 170 -266 25 -33 70 -96 100 -140 29 -44
66 -95 82 -113 16 -19 58 -78 94 -132 36 -55 69 -102 74 -105 4 -3 39 -51 76
-106 37 -56 87 -124 111 -153 25 -28 51 -63 58 -77 8 -14 40 -62 72 -107 102
-144 153 -216 189 -269 20 -29 39 -53 42 -53 4 0 36 -45 72 -100 36 -56 85
-128 110 -161 25 -34 74 -103 110 -154 36 -50 86 -119 111 -153 26 -34 60 -82
75 -107 16 -26 47 -70 69 -98 23 -29 71 -96 108 -149 38 -54 82 -115 100 -137
18 -22 61 -85 97 -140 36 -56 68 -101 73 -101 4 0 23 -24 42 -52 37 -58 98
-145 186 -266 31 -42 62 -88 69 -102 7 -14 28 -43 47 -66 44 -55 44 -92 -2
-143 -19 -21 -35 -43 -35 -49 0 -5 -16 -30 -36 -54 -20 -23 -52 -65 -70 -93
-50 -74 -104 -145 -146 -195 -21 -24 -38 -50 -38 -58 0 -8 -16 -33 -36 -56
-37 -42 -92 -119 -122 -170 -9 -16 -41 -56 -69 -88 -29 -32 -53 -65 -53 -73 0
-9 -17 -34 -38 -58 -21 -23 -46 -55 -56 -72 -10 -16 -29 -41 -42 -55 -13 -14
-33 -43 -46 -66 -13 -22 -44 -69 -70 -105 -26 -35 -60 -81 -75 -102 -15 -21
-52 -68 -81 -103 -30 -36 -60 -80 -67 -98 -8 -18 -22 -39 -31 -47 -10 -8 -32
-36 -50 -64 -17 -27 -46 -67 -63 -89 -17 -21 -31 -43 -31 -48 0 -6 -25 -38
-55 -71 -30 -34 -55 -67 -55 -74 0 -6 -17 -32 -37 -57 -54 -65 -104 -131 -138
-186 -43 -68 -94 -137 -142 -192 -24 -27 -43 -55 -43 -63 0 -9 -25 -42 -55
-75 -30 -33 -55 -66 -55 -74 0 -8 -12 -28 -26 -43 -15 -15 -38 -46 -52 -68
-14 -22 -40 -57 -58 -78 -19 -20 -34 -44 -34 -51 0 -8 -27 -45 -60 -83 -33
-37 -60 -73 -60 -79 0 -6 -9 -19 -21 -30 -12 -10 -28 -32 -36 -49 -9 -16 -35
-53 -59 -82 -24 -28 -44 -56 -44 -62 0 -6 -15 -28 -33 -48 -18 -21 -46 -58
-62 -83 -16 -25 -44 -62 -62 -82 -63 -72 -123 -67 876 -70 854 -3 897 -2 911
15 8 10 32 38 53 63 20 25 37 51 37 58 0 7 9 21 21 32 12 10 32 40 45 66 13
26 28 50 34 53 6 4 42 54 81 113 38 58 85 123 104 144 19 21 35 45 35 53 0 8
16 32 35 54 19 21 35 43 35 49 0 6 11 23 24 39 13 15 31 44 41 63 10 19 31 50
46 68 16 18 29 38 29 46 0 7 16 31 35 53 19 23 35 46 35 52 0 6 17 30 38 54
21 23 60 77 87 120 28 43 67 98 88 123 20 25 37 51 37 58 0 7 16 31 35 53 19
23 35 46 35 51 0 5 18 32 40 58 22 27 40 54 40 61 0 7 14 28 32 48 17 20 38
49 47 66 9 16 58 90 109 165 131 192 133 194 175 241 20 24 37 49 37 57 0 9
13 30 29 48 15 18 36 49 46 68 23 46 55 80 75 80 8 0 36 -30 60 -67 24 -37 85
-123 135 -190 49 -67 112 -157 140 -200 27 -43 82 -122 122 -176 40 -53 120
-168 178 -255 57 -86 117 -174 132 -194 15 -21 60 -83 98 -139 39 -56 100
-144 137 -198 37 -53 82 -117 100 -143 18 -26 50 -71 70 -100 20 -29 46 -66
58 -83 11 -16 67 -96 123 -176 56 -81 131 -190 167 -244 36 -53 85 -121 109
-151 l44 -54 901 2 c811 3 901 5 904 19 3 14 -95 163 -132 199 -8 9 -37 47
-63 86 -99 144 -202 290 -231 324 -16 19 -55 73 -87 120 -32 47 -70 99 -85
117 -16 17 -58 76 -95 130 -82 122 -161 231 -217 302 -24 30 -63 84 -88 121
-54 80 -111 159 -208 288 -40 53 -97 133 -127 177 -69 101 -169 238 -218 302
-56 71 -187 256 -225 316 -18 29 -48 71 -67 94 -20 23 -56 73 -82 110 -25 37
-64 88 -86 113 -21 25 -46 59 -54 75 -9 17 -46 71 -82 120 -37 50 -86 119
-110 154 -24 35 -53 73 -64 84 -12 12 -47 60 -79 107 -32 47 -76 110 -98 140
l-41 56 17 39 c9 22 29 55 45 73 16 18 37 49 48 70 11 20 33 50 50 66 17 17
31 35 31 42 0 6 26 43 58 82 55 68 83 106 119 166 10 15 39 55 66 88 26 33 47
64 47 69 0 5 15 26 33 46 18 21 44 56 57 78 13 22 41 59 62 82 21 24 38 48 38
54 0 6 20 33 44 61 24 27 50 62 57 77 7 14 26 41 41 59 16 18 28 37 28 42 0 4
25 39 55 75 30 37 55 71 55 76 0 5 19 30 43 57 23 27 54 69 70 93 55 87 73
112 114 159 24 25 48 60 55 77 7 16 28 48 46 69 52 61 152 197 152 207 0 5 20
32 44 60 24 29 50 66 59 82 8 17 24 39 36 49 12 11 21 24 21 30 0 6 27 42 60
79 33 38 60 75 60 83 0 8 17 33 39 57 21 23 45 56 54 72 9 17 29 45 46 63 17
18 31 39 31 47 0 8 18 35 40 60 22 26 56 70 74 98 18 29 43 61 55 71 11 11 21
23 21 29 0 5 19 32 43 60 23 28 53 69 67 92 35 59 79 120 121 169 36 40 69
104 69 132 0 12 -133 14 -838 14 -947 0 -855 9 -921 -88 -21 -32 -46 -64 -56
-72 -9 -7 -28 -34 -41 -59 -28 -53 -62 -103 -97 -146 -14 -17 -35 -48 -48 -70
-12 -22 -40 -59 -61 -82 -21 -24 -38 -49 -38 -57 0 -8 -14 -30 -31 -48 -17
-18 -37 -47 -44 -64 -8 -17 -22 -37 -31 -45 -10 -8 -33 -39 -52 -69 -19 -30
-48 -70 -64 -88 -15 -18 -28 -38 -28 -44 0 -6 -16 -28 -35 -49 -19 -22 -35
-46 -35 -54 0 -9 -17 -34 -38 -58 -21 -23 -54 -67 -75 -97 -64 -94 -85 -124
-106 -151 -11 -15 -25 -38 -30 -52 -5 -14 -23 -40 -38 -58 -16 -19 -40 -50
-53 -69 -13 -19 -41 -54 -62 -77 -21 -24 -38 -49 -38 -57 0 -8 -15 -32 -32
-54 -18 -22 -41 -53 -51 -68 -45 -75 -64 -103 -102 -154 -23 -30 -51 -71 -62
-90 -12 -20 -33 -46 -47 -59 -14 -14 -26 -30 -26 -38 0 -20 -70 -93 -89 -93
-10 0 -29 17 -43 38 -108 160 -192 278 -209 292 -4 3 -43 59 -88 125 -166 243
-257 373 -296 422 -22 27 -58 78 -80 112 -22 33 -75 110 -119 169 -43 59 -93
130 -111 157 -19 28 -42 59 -52 70 -26 29 -59 77 -127 180 -32 50 -69 101 -82
115 -22 24 -89 121 -160 230 -20 30 -46 66 -59 80 -28 30 -107 146 -129 189
l-17 31 -894 0 c-865 0 -895 -1 -895 -19z"/><path d="M51943 14674 c-3 -8 -1 -25 4 -37 6 -12 20 -56 33 -97 12 -41 28 -88
36 -103 8 -16 14 -36 14 -46 0 -9 9 -34 20 -56 11 -22 20 -48 20 -59 0 -11 9
-38 19 -60 10 -23 21 -52 24 -66 3 -14 17 -57 31 -95 14 -39 32 -98 39 -130
17 -70 71 -239 98 -307 11 -26 19 -54 19 -62 0 -8 6 -30 14 -48 7 -18 21 -60
31 -93 9 -33 25 -79 36 -103 10 -23 19 -53 19 -65 0 -12 9 -35 20 -52 11 -16
20 -39 20 -50 0 -11 10 -44 21 -75 36 -93 40 -105 119 -360 18 -58 38 -121 45
-140 16 -41 42 -123 55 -165 22 -76 42 -132 56 -158 7 -16 14 -38 14 -49 0
-12 8 -39 19 -62 35 -77 97 -270 110 -343 4 -23 12 -48 18 -55 6 -7 14 -30 17
-52 4 -21 11 -46 16 -55 11 -20 39 -104 50 -151 8 -34 35 -114 51 -155 23 -56
49 -142 49 -160 0 -11 9 -33 20 -50 11 -16 20 -41 20 -55 0 -14 7 -35 15 -46
8 -12 19 -39 24 -60 11 -42 35 -117 56 -174 12 -34 71 -220 103 -325 8 -27 20
-63 27 -80 23 -59 47 -131 55 -168 4 -21 13 -44 19 -50 6 -6 11 -22 11 -37 0
-14 7 -38 16 -55 9 -16 22 -50 29 -75 17 -56 82 -248 94 -275 5 -11 14 -45 21
-75 14 -64 64 -223 91 -294 10 -27 19 -55 19 -62 0 -7 6 -28 14 -46 8 -18 22
-60 31 -93 10 -33 26 -79 36 -103 11 -23 19 -53 19 -65 0 -12 7 -33 17 -46 9
-13 20 -40 24 -60 8 -37 33 -113 55 -166 7 -16 29 -84 49 -150 68 -220 67
-216 115 -355 6 -19 16 -53 21 -75 6 -21 14 -44 18 -50 5 -5 12 -29 16 -52 3
-23 13 -47 21 -54 8 -6 14 -23 14 -37 0 -27 55 -152 67 -152 5 0 386 0 848 -1
l840 0 12 23 c20 40 60 149 93 258 18 58 41 127 51 154 10 27 19 57 19 68 0
10 8 33 17 51 9 18 20 48 24 67 4 19 19 67 34 105 14 39 30 86 34 105 5 19 15
51 23 70 9 19 33 87 54 150 21 63 59 178 85 255 27 77 48 146 49 153 0 7 9 32
20 54 11 23 20 52 20 65 0 13 7 37 15 52 8 16 19 46 24 67 5 22 21 71 36 109
15 39 30 86 34 105 5 19 15 51 23 70 23 53 70 191 76 225 3 17 10 39 17 50 7
11 31 81 55 155 23 74 49 153 57 175 9 22 19 56 24 75 4 19 29 94 54 165 25
72 50 146 54 165 5 19 15 51 23 70 20 44 57 153 70 205 6 22 15 49 21 60 6 11
25 65 42 120 18 55 39 118 48 140 8 22 40 121 72 220 31 99 63 195 71 213 8
18 18 50 23 70 6 20 22 69 36 107 15 39 51 147 82 240 53 162 78 215 93 198 4
-5 24 -62 45 -128 20 -66 43 -135 51 -153 8 -18 14 -42 14 -52 0 -11 9 -37 20
-57 11 -21 20 -47 20 -58 0 -12 7 -30 15 -41 8 -10 15 -30 15 -43 0 -13 9 -42
19 -65 11 -23 25 -68 32 -101 7 -33 19 -69 26 -80 7 -11 13 -29 13 -40 0 -11
9 -37 20 -58 11 -20 20 -48 20 -62 0 -14 6 -36 14 -48 8 -12 17 -38 21 -57 4
-19 18 -67 31 -107 13 -39 24 -77 24 -85 1 -7 9 -31 20 -53 11 -22 19 -50 20
-62 0 -12 6 -34 14 -50 18 -37 46 -119 55 -164 4 -20 15 -47 24 -60 10 -13 17
-34 17 -46 0 -13 9 -40 20 -60 11 -21 20 -44 20 -51 0 -17 37 -132 50 -154 6
-10 10 -26 10 -35 0 -10 9 -40 19 -68 11 -27 29 -84 41 -125 11 -41 28 -95 36
-120 9 -25 19 -61 24 -80 5 -19 16 -57 26 -85 9 -27 22 -66 29 -85 7 -19 18
-51 25 -70 6 -19 15 -51 19 -71 4 -20 15 -47 24 -60 10 -13 17 -34 17 -47 0
-12 9 -40 20 -62 11 -22 20 -50 20 -62 0 -13 6 -32 14 -43 7 -11 17 -36 21
-55 4 -19 13 -48 20 -65 7 -16 19 -52 28 -80 35 -115 88 -282 98 -310 6 -16
15 -46 19 -65 11 -47 40 -129 56 -162 8 -14 14 -35 14 -45 0 -10 9 -37 21 -58
11 -22 25 -67 30 -99 5 -32 16 -68 24 -80 8 -11 15 -32 15 -46 0 -14 9 -40 20
-58 11 -18 20 -44 20 -57 0 -14 9 -42 20 -62 11 -21 20 -46 20 -56 0 -18 48
-177 75 -247 8 -19 16 -48 20 -64 3 -15 13 -39 22 -52 l15 -24 844 0 844 0 20
33 c11 17 23 43 26 57 3 14 13 48 23 75 24 64 98 286 115 345 15 51 30 93 58
162 10 26 18 54 18 62 0 8 6 30 14 48 8 18 27 74 41 123 15 50 38 128 52 175
14 47 31 99 39 117 8 17 14 39 14 50 0 10 7 31 15 47 9 16 20 46 25 65 5 20
19 63 31 96 12 33 25 74 29 90 5 17 29 89 54 160 25 72 46 137 46 145 0 8 9
33 20 55 11 22 19 45 20 51 0 17 49 166 60 186 6 10 10 27 10 38 0 11 9 39 19
63 11 23 21 53 24 67 3 14 26 84 52 155 25 72 50 144 54 160 5 17 18 57 30 90
12 33 26 77 30 97 5 21 13 43 19 50 5 7 13 31 17 53 4 22 13 51 20 65 7 14 25
68 40 120 14 52 33 115 41 140 8 25 21 65 28 90 8 25 19 61 26 80 7 19 20 58
30 85 9 28 22 66 30 85 7 19 18 55 25 80 7 25 37 113 65 195 29 83 56 168 62
190 6 22 14 47 17 55 4 8 20 56 35 105 15 50 34 105 42 123 8 18 14 42 14 53
0 11 7 34 17 52 9 18 19 46 24 62 9 41 69 216 80 237 5 10 9 25 9 34 0 8 8 36
18 62 27 68 42 111 58 162 20 66 44 140 59 180 7 19 18 53 24 75 45 164 62
218 71 234 5 11 10 28 10 38 0 10 7 31 15 47 9 16 20 46 25 65 11 47 39 126
62 177 10 22 18 47 18 55 0 17 46 158 72 216 10 24 18 52 18 63 0 10 6 34 14
52 8 18 27 74 42 123 15 50 31 97 35 105 3 8 11 33 17 55 16 64 102 316 123
364 15 33 17 46 8 57 -10 12 -131 14 -755 14 -662 0 -744 -2 -758 -16 -9 -8
-16 -23 -16 -33 0 -9 -7 -26 -15 -37 -8 -10 -15 -26 -15 -34 0 -17 -137 -448
-150 -471 -5 -9 -14 -36 -20 -60 -6 -24 -17 -57 -25 -74 -8 -16 -24 -64 -35
-105 -12 -41 -27 -91 -35 -110 -8 -19 -37 -109 -66 -200 -28 -91 -65 -203 -81
-250 -16 -47 -34 -102 -39 -122 -5 -20 -15 -52 -23 -70 -7 -18 -28 -80 -46
-138 -18 -58 -36 -114 -41 -125 -11 -24 -88 -252 -96 -280 -3 -11 -13 -42 -23
-70 -10 -27 -33 -97 -50 -155 -17 -58 -39 -127 -49 -155 -29 -84 -50 -146 -82
-245 -17 -52 -35 -99 -40 -105 -5 -5 -9 -19 -9 -32 0 -13 -5 -31 -10 -41 -12
-19 -76 -204 -92 -267 -6 -22 -17 -53 -24 -70 -7 -16 -23 -64 -35 -105 -12
-41 -27 -91 -34 -110 -28 -82 -47 -139 -65 -200 -26 -89 -49 -159 -64 -195 -8
-17 -17 -46 -21 -65 -4 -19 -14 -44 -21 -55 -8 -11 -14 -29 -14 -40 0 -11 -7
-33 -15 -49 -9 -16 -20 -46 -25 -65 -8 -35 -29 -97 -56 -171 -21 -58 -92 -292
-105 -345 -7 -27 -17 -61 -24 -75 -7 -14 -15 -42 -19 -63 -12 -65 -58 -56 -72
13 -3 14 -14 44 -25 68 -10 23 -19 51 -19 62 0 11 -9 37 -20 57 -11 21 -20 45
-20 55 0 10 -6 32 -14 50 -21 50 -76 223 -76 239 0 7 -8 36 -19 64 -40 107
-60 174 -66 224 -2 14 -8 34 -14 45 -16 33 -82 227 -90 268 -5 21 -14 45 -21
53 -7 8 -16 32 -21 53 -4 20 -15 60 -25 87 -9 28 -22 66 -29 85 -7 19 -18 51
-25 70 -6 19 -16 51 -20 70 -4 19 -13 49 -19 65 -24 68 -53 162 -61 199 -5 23
-16 64 -26 91 -9 28 -22 66 -29 85 -7 19 -18 51 -25 70 -6 19 -15 51 -19 71
-4 20 -15 47 -24 60 -10 13 -17 34 -17 47 0 12 -9 40 -20 62 -11 22 -20 47
-20 56 0 9 -6 30 -14 47 -21 48 -71 204 -82 257 -3 14 -12 39 -20 57 -8 17
-14 37 -14 45 0 7 -10 42 -21 78 -12 36 -25 81 -29 100 -5 19 -20 67 -34 105
-14 39 -26 77 -26 85 -1 8 -9 33 -20 55 -11 22 -20 51 -20 65 0 14 -9 36 -20
50 -11 14 -20 36 -20 50 0 14 -7 38 -15 54 -9 16 -20 46 -25 65 -7 31 -38 126
-72 226 -17 51 -39 128 -56 190 -8 33 -23 83 -33 110 -10 28 -25 77 -34 110
-9 33 -23 74 -31 92 -8 17 -14 38 -14 47 0 9 -9 34 -20 56 -11 22 -20 50 -20
62 0 13 -7 34 -17 47 -9 13 -20 40 -24 60 -4 20 -19 68 -32 106 -13 39 -29 88
-36 110 -6 22 -20 55 -31 73 l-20 32 -718 0 c-768 0 -744 2 -755 -50 -5 -24
-120 -366 -136 -405 -12 -29 -51 -142 -69 -200 -8 -27 -21 -65 -29 -83 -8 -17
-36 -102 -64 -188 -27 -86 -53 -163 -58 -172 -5 -10 -12 -35 -16 -57 -4 -22
-11 -45 -15 -50 -5 -6 -13 -29 -19 -50 -11 -46 -38 -127 -56 -170 -7 -16 -20
-50 -28 -75 -44 -139 -117 -350 -130 -380 -9 -19 -48 -136 -87 -260 -39 -124
-77 -239 -84 -255 -7 -17 -17 -46 -21 -65 -4 -19 -13 -46 -20 -60 -12 -26 -40
-103 -55 -155 -5 -16 -16 -52 -26 -80 -10 -27 -25 -72 -35 -100 -9 -27 -22
-66 -29 -85 -6 -19 -18 -55 -25 -80 -26 -84 -46 -145 -59 -175 -7 -16 -18 -48
-24 -70 -16 -63 -80 -248 -92 -267 -5 -10 -10 -28 -10 -41 0 -13 -4 -27 -9
-32 -5 -6 -30 -75 -56 -155 -26 -80 -56 -167 -66 -195 -9 -27 -34 -104 -54
-170 -20 -66 -42 -133 -49 -150 -7 -16 -18 -48 -24 -70 -16 -63 -80 -248 -92
-267 -5 -10 -10 -28 -10 -41 0 -13 -4 -27 -9 -32 -5 -6 -16 -35 -26 -65 -18
-56 -31 -80 -45 -80 -8 0 -36 73 -50 130 -4 19 -13 49 -18 65 -6 17 -15 46
-22 65 -6 19 -19 64 -27 100 -9 36 -22 77 -29 92 -8 15 -14 35 -14 45 0 10 -9
40 -19 68 -30 80 -71 207 -80 246 -4 20 -15 47 -24 60 -10 13 -17 35 -17 49 0
14 -7 35 -15 46 -8 12 -19 39 -24 60 -14 54 -41 135 -52 156 -5 10 -9 25 -9
33 0 9 -9 44 -20 78 -11 34 -29 96 -41 137 -11 41 -29 97 -40 124 -10 27 -19
57 -19 67 0 11 -4 27 -9 37 -11 21 -38 102 -52 156 -5 21 -16 48 -24 60 -8 11
-15 32 -15 46 0 14 -9 39 -20 55 -11 17 -20 38 -20 48 0 21 -36 134 -50 159
-6 10 -10 25 -10 34 0 8 -8 36 -19 62 -10 26 -26 76 -34 112 -8 36 -20 79 -26
95 -6 17 -24 77 -42 135 -17 58 -37 119 -44 135 -7 17 -16 46 -20 65 -4 19
-14 44 -21 55 -8 11 -14 31 -14 45 0 14 -9 39 -20 55 -11 17 -20 41 -20 53 0
13 -6 38 -14 55 -14 33 -41 110 -56 162 -4 17 -13 44 -18 60 -22 66 -32 102
-32 121 0 10 -7 28 -15 38 -8 11 -15 27 -15 35 0 18 -49 179 -92 301 -16 47
-34 102 -39 124 -5 21 -16 51 -24 67 -8 15 -15 37 -15 49 0 11 -9 37 -20 57
-11 21 -20 45 -20 55 0 10 -6 32 -14 50 -22 51 -66 197 -66 218 0 11 -9 34
-20 52 -11 18 -20 41 -20 51 0 26 -58 205 -83 257 l-22 45 -813 3 c-731 2
-813 1 -819 -14z"/><path d="M65002 14678 c-17 -17 -17 -6869 0 -6886 17 -17 5309 -17 5326 0 9 9
12 163 12 629 l0 618 -22 16 c-20 14 -210 15 -1868 15 -1715 0 -1846 1 -1857
16 -10 13 -13 193 -13 775 0 747 0 759 20 779 20 20 30 20 1600 20 1551 0
1579 0 1590 19 6 13 10 221 10 606 0 385 -4 593 -10 606 -11 19 -39 19 -1595
19 -1424 0 -1585 2 -1599 16 -14 14 -16 92 -13 728 2 587 4 716 16 729 12 16
150 17 1797 17 l1783 0 15 22 c14 20 16 97 16 633 0 462 -3 614 -12 623 -17
17 -5179 17 -5196 0z"/><path d="M72758 14679 c-17 -9 -18 -184 -18 -3443 0 -2951 2 -3435 14 -3445
19 -16 3943 -8 4116 8 183 17 392 46 470 66 30 7 78 17 105 21 28 3 62 13 77
20 15 8 40 14 55 14 15 0 48 9 72 20 24 11 52 20 62 20 11 0 36 9 56 20 21 11
49 20 63 20 14 0 39 9 55 20 17 11 40 20 52 20 39 0 258 115 395 206 200 134
465 406 509 523 6 13 25 41 44 62 20 22 37 54 41 76 4 21 20 64 35 97 71 144
128 507 114 731 -9 143 -25 297 -35 335 -5 19 -16 69 -25 110 -9 41 -27 100
-41 131 -13 31 -24 64 -24 73 0 21 -51 121 -84 165 -14 19 -26 40 -26 45 0 27
-175 250 -247 316 -126 115 -192 170 -202 170 -6 0 -30 17 -54 38 -83 75 -238
157 -382 204 -130 42 -139 53 -73 88 22 12 86 54 141 93 55 40 109 78 121 86
41 28 198 186 213 216 8 17 37 53 63 80 46 48 61 71 96 145 9 19 22 42 29 50
7 8 16 26 20 40 4 14 13 32 19 40 14 18 52 112 62 154 4 16 13 41 20 55 8 14
14 37 14 51 0 14 7 53 16 85 31 122 45 447 24 595 -18 133 -40 237 -63 305
-72 210 -79 224 -162 340 -19 28 -55 79 -79 115 -55 81 -203 227 -319 314 -49
36 -92 66 -96 66 -5 0 -29 16 -54 35 -59 45 -255 142 -372 185 -49 18 -94 36
-100 41 -5 5 -18 9 -30 9 -11 0 -40 7 -65 16 -53 18 -240 64 -290 71 -19 2
-44 8 -55 13 -11 5 -38 11 -60 14 -22 2 -74 9 -115 16 -156 23 -253 31 -515
40 -383 13 -3565 12 -3587 -1z m3517 -1217 c22 -6 76 -18 120 -26 133 -24 232
-55 328 -100 82 -39 102 -54 187 -142 96 -100 170 -216 170 -267 0 -12 7 -32
15 -43 21 -31 30 -229 15 -329 -19 -129 -54 -224 -106 -290 -17 -22 -35 -50
-38 -62 -10 -31 -121 -128 -176 -154 -25 -12 -57 -30 -71 -40 -43 -31 -254
-98 -369 -119 -153 -27 -359 -33 -1165 -37 -779 -3 -841 -2 -852 14 -10 13
-13 191 -13 808 0 436 3 795 7 799 12 12 1903 1 1948 -12z m278 -2796 c40 -8
106 -19 147 -25 41 -7 91 -18 110 -26 19 -7 62 -21 95 -30 103 -29 143 -46
166 -71 12 -13 31 -24 41 -24 27 0 160 -123 208 -190 42 -61 104 -187 115
-235 25 -109 33 -342 14 -391 -5 -14 -9 -36 -9 -50 0 -14 -8 -41 -19 -62 -10
-20 -21 -53 -25 -73 -3 -20 -16 -45 -28 -55 -11 -11 -29 -38 -40 -61 -29 -65
-154 -175 -251 -221 -134 -63 -267 -109 -349 -119 -23 -3 -51 -10 -61 -15 -11
-5 -96 -16 -190 -24 -132 -10 -402 -14 -1158 -14 -891 0 -987 2 -993 16 -8 21
-8 1669 1 1677 3 4 490 7 1080 7 876 0 1087 -3 1146 -14z"/></g></g></svg>